<svg xmlns="http://www.w3.org/2000/svg" viewBox="0 0 72 72">
<path fill="#edff0f" d="M 17 23 V 10 H 20 L 24 17 L 29 23 L 39 24 H 40 L 40 44 L 17 23"/>
<path fill="#6817ff" d="M 40 24 H 46 L 53 18 L 57 10 H 60 L 59 32 H 61 V 31 H 65 V 30 H 72 V 33 H 68 V 34 H 64 V 35 H 59 V 39 H 61 V 40 H 64 V 41 H 67 V 42 H 71 V 45 H 65 V 44 H 62 V 43 H 58 V 45 H 57 V 47 L 40 44 L 40 24"/>
<path fill="#17ffe2" d="M 57 47 V 48 H 56 V 51 H 55 V 53 H 54 V 58 H 53 V 59 H 52 V 61 H 51 V 62 H 31 V 61 H 26 V 60 L 40 44 L 57 47"/>
<path fill="#ff0fe7" d="M 26 60 H 22 V 59 H 20 V 53 H 19 V 50 H 18 V 48 H 17 V 39 H 14 V 40 H 11 V 41 H 7 V 42 H 3 V 43 H 0 V 40 H 1 V 39 H 4 V 38 H 8 V 37 H 12 V 36 H 15 V 35 H 17 V 33 H 15 V 32 H 13 V 31 H 9 V 30 H 8 V 29 H 5 V 28 H 3 V 27 H 2 V 26 H 1 V 23 H 5 V 24 H 6 V 25 H 8 V 26 H 10 V 27 H 12 V 28 H 15 V 29 H 17 V 23 L 40 44 L 26 60"/>
</svg>
