<svg xmlns="http://www.w3.org/2000/svg" viewBox="0 0 400 400"><defs><style>.cls-1{fill:#1b1925;}.cls-2{fill:#17ffe2;}.cls-3{fill:#edff0f;}.cls-4{fill:#ff0fe7;}.cls-5{fill:#6817ff;}</style></defs><title>glumbo logo svg version</title><g id="Layer_1" data-name="Layer 1"><rect class="cls-1" width="400" height="400"/><rect class="cls-2" x="67.95" y="267.98" width="288.03" height="88.05"/><rect class="cls-2" x="94.4" y="186.05" width="257.57" height="105.95"/><rect class="cls-3" x="51.99" y="44.03" width="163.92" height="149.3"/><rect class="cls-4" x="43.95" y="44.03" width="8.03" height="312"/><rect class="cls-4" x="50.7" y="52.03" width="5.32" height="50.42"/><rect class="cls-4" x="49.22" y="55.97" width="10.82" height="20.17"/><rect class="cls-4" x="54.63" y="60.01" width="9.37" height="17.13"/><rect class="cls-4" x="58.78" y="68.01" width="9.23" height="12.43"/><rect class="cls-4" x="60.83" y="72.01" width="11.18" height="14.83"/><rect class="cls-4" x="57.32" y="76" width="18.68" height="15.2"/><rect class="cls-4" x="68.01" y="84.01" width="12.01" height="14.69"/><rect class="cls-4" x="71.75" y="88.01" width="12.27" height="9.84"/><rect class="cls-4" x="76.84" y="92.02" width="11.17" height="15.03"/><rect class="cls-4" x="82.18" y="100.03" width="9.79" height="11.66"/><rect class="cls-4" x="84.02" y="104.01" width="11.94" height="8.51"/><rect class="cls-4" x="89.99" y="108" width="9.98" height="10.82"/><rect class="cls-4" x="92.28" y="116.01" width="11.71" height="11.71"/><rect class="cls-4" x="91.38" y="120.02" width="16.59" height="14.57"/><rect class="cls-4" x="99.17" y="124.01" width="12.82" height="12.82"/><rect class="cls-4" x="102.2" y="132.01" width="13.78" height="17.82"/><rect class="cls-4" x="110.3" y="140.01" width="9.66" height="13.76"/><rect class="cls-4" x="109.49" y="144.02" width="15.95" height="18.9"/><rect class="cls-4" x="49.22" y="74.23" width="18.8" height="58.92"/><rect class="cls-4" x="53.36" y="89.36" width="26.65" height="38.66"/><rect class="cls-4" x="50.7" y="108" width="44.28" height="25.14"/><rect class="cls-4" x="69.18" y="98.64" width="15.27" height="13.64"/><rect class="cls-4" x="49.22" y="129.18" width="58.76" height="116.78"/><rect class="cls-4" x="105.58" y="146.89" width="22.44" height="109.14"/><rect class="cls-4" x="141.15" y="286.2" width="14.9" height="9.81"/><rect class="cls-4" x="136" y="289.44" width="16.02" height="10.56"/><rect class="cls-4" x="128.1" y="290.84" width="15.91" height="13.14"/><rect class="cls-4" x="106.49" y="286.49" width="29.56" height="21.48"/><rect class="cls-4" x="106.27" y="300.66" width="25.74" height="11.32"/><rect class="cls-4" x="81.95" y="301.63" width="42.09" height="14.32"/><rect class="cls-4" x="68.86" y="305.11" width="51.09" height="14.83"/><rect class="cls-4" x="73.41" y="316.24" width="38.56" height="7.74"/><rect class="cls-4" x="60.66" y="313.61" width="47.32" height="14.32"/><rect class="cls-4" x="48.39" y="311.64" width="51.61" height="20.32"/><rect class="cls-4" x="50.77" y="314.02" width="45.2" height="21.89"/><rect class="cls-4" x="53.5" y="319.34" width="34.5" height="20.59"/><rect class="cls-4" x="52.55" y="323.98" width="31.43" height="19.98"/><rect class="cls-4" x="58.97" y="323.43" width="16.96" height="24.48"/><rect class="cls-4" x="54.05" y="332.23" width="18" height="19.7"/><rect class="cls-4" x="49.99" y="333.52" width="17.97" height="22.51"/><rect class="cls-4" x="49.22" y="239.98" width="49.95" height="79.36"/><rect class="cls-4" x="78.6" y="242.63" width="74.39" height="48.21"/><rect class="cls-4" x="92.69" y="286.49" width="19.67" height="25.14"/><rect class="cls-5" x="291.91" y="233.77" width="22.07" height="10.23"/><rect class="cls-5" x="300.02" y="231.21" width="21.91" height="16.74"/><rect class="cls-5" x="312.01" y="239.64" width="17.22" height="12.34"/><rect class="cls-5" x="320.04" y="237.86" width="12.84" height="18.15"/><rect class="cls-5" x="332.03" y="239.58" width="11.63" height="20.4"/><rect class="cls-5" x="340.01" y="236.61" width="9.61" height="27.38"/><rect class="cls-5" x="347.96" y="228.08" width="8.03" height="39.91"/><rect class="cls-5" x="215.91" y="44.09" width="140.08" height="195.55"/><rect class="cls-1" x="183.93" y="276.73" width="72.67" height="15.27"/></g><g id="Layer_2" data-name="Layer 2"><rect class="cls-1" x="154.96" y="148.01" width="114.14" height="134.44"/><rect class="cls-1" x="131.94" y="144.02" width="80.05" height="98.61"/><rect class="cls-4" x="155.96" y="180.03" width="15.97" height="27.92"/><rect class="cls-4" x="155.96" y="190.02" width="23.95" height="17.93"/><rect class="cls-4" x="151.97" y="187.85" width="32.09" height="16.15"/><rect class="cls-4" x="151.97" y="184.07" width="23.98" height="18.61"/><rect class="cls-5" x="224.06" y="184" width="19.97" height="32.02"/><rect class="cls-5" x="228.25" y="196.29" width="19.74" height="19.74" transform="translate(444.28 -31.97) rotate(90)"/><rect class="cls-5" x="226.09" y="185.96" width="19.8" height="31.95" transform="translate(437.93 -34.06) rotate(90)"/><rect class="cls-5" x="232.99" y="187.99" width="15" height="24.06"/><rect class="cls-1" x="124.02" y="92.02" width="11.99" height="151.98"/><rect class="cls-1" x="128.02" y="239.98" width="32.01" height="11.97"/><rect class="cls-1" x="132.02" y="250.58" width="36.98" height="13.4"/><rect class="cls-1" x="136" y="256.27" width="8.93" height="31.73"/><rect class="cls-1" x="144.01" y="237.45" width="17.97" height="54.54"/><rect class="cls-1" x="160.03" y="245.23" width="23.9" height="50.79"/><rect class="cls-1" x="180.05" y="282.45" width="79.97" height="17.55"/><rect class="cls-1" x="244.77" y="269.52" width="19.23" height="26.5"/><rect class="cls-1" x="245.2" y="255.24" width="22.81" height="32.78"/><rect class="cls-1" x="249.16" y="251.17" width="22.83" height="32.78"/><rect class="cls-1" x="253.19" y="231.21" width="22.81" height="32.78"/><rect class="cls-1" x="257.2" y="223.25" width="22.81" height="32.78"/><rect class="cls-1" x="261.2" y="211.22" width="22.81" height="32.78"/><rect class="cls-1" x="265.2" y="199.19" width="22.81" height="32.78"/><rect class="cls-1" x="269.11" y="141.93" width="22.81" height="82.09"/><rect class="cls-1" x="284.02" y="92.05" width="11.93" height="63.96"/><rect class="cls-1" x="280.02" y="100.04" width="13.69" height="45.47"/><rect class="cls-1" x="275.99" y="108.05" width="13.69" height="45.47"/><rect class="cls-1" x="272.01" y="116.04" width="13.69" height="45.47"/><rect class="cls-1" x="268.01" y="120.01" width="13.69" height="45.47"/><rect class="cls-1" x="264.01" y="124.03" width="13.69" height="45.47"/><rect class="cls-1" x="260" y="128.03" width="13.69" height="45.47"/><rect class="cls-1" x="251.97" y="131.98" width="13.69" height="45.47"/><rect class="cls-1" x="248.01" y="136.01" width="13.69" height="37.46"/><rect class="cls-1" x="243.97" y="139.99" width="13.69" height="26.28"/><rect class="cls-1" x="240.02" y="144.01" width="13.69" height="26.28"/><rect class="cls-1" x="158.32" y="140.02" width="13.69" height="26.28"/><rect class="cls-1" x="154.35" y="132.01" width="13.69" height="26.28"/><rect class="cls-1" x="146.34" y="124.03" width="13.69" height="26.28"/><rect class="cls-1" x="142.3" y="120" width="13.69" height="26.28"/><rect class="cls-1" x="138.34" y="116" width="13.69" height="32.34"/><rect class="cls-1" x="134.31" y="108.01" width="13.69" height="45.99"/><rect class="cls-1" x="130.32" y="104.01" width="13.69" height="45.99"/><rect class="cls-1" x="126.31" y="99.99" width="13.69" height="45.99"/><rect class="cls-1" x="116" y="168.01" width="11.13" height="15.98"/><rect class="cls-1" x="108.01" y="168.01" width="16.7" height="11.93"/><rect class="cls-1" x="88.01" y="160.03" width="16" height="11.96"/><rect class="cls-1" x="92.01" y="164.02" width="23.99" height="11.98"/><rect class="cls-1" x="76.01" y="156" width="19.99" height="11.96"/><rect class="cls-1" x="68.02" y="152.03" width="19.99" height="11.96"/><rect class="cls-1" x="64.02" y="148.03" width="16" height="11.96"/><rect class="cls-1" x="60.02" y="144.04" width="16" height="11.96"/><rect class="cls-1" x="116.02" y="192.03" width="16" height="16"/><rect class="cls-1" x="104" y="195.97" width="16.7" height="12.06"/><rect class="cls-1" x="88.03" y="199.97" width="23.97" height="12.06"/><rect class="cls-1" x="72.01" y="204" width="28" height="12.06"/><rect class="cls-1" x="60.02" y="207.95" width="23.96" height="12.06"/><rect class="cls-1" x="56.02" y="212.04" width="16" height="11.96"/><rect class="cls-1" x="287.96" y="212.04" width="23.97" height="12.06"/><rect class="cls-1" x="276.05" y="208.04" width="23.97" height="12.06"/><rect class="cls-1" x="303.97" y="216.02" width="20.03" height="12.06"/><rect class="cls-1" x="312.01" y="220" width="27.99" height="11.97"/><rect class="cls-1" x="284" y="180.06" width="27.99" height="11.97"/><rect class="cls-1" x="300.06" y="176.02" width="27.97" height="11.97"/><rect class="cls-1" x="315.91" y="172.1" width="27.99" height="11.97"/><rect class="cls-1" x="253.19" y="148.68" width="28.51" height="69.39"/></g></svg>
